# Blender v2.79 (sub 0) OBJ File: ''
# www.blender.org
mtllib rogueArmor.mtl
o rogueArmor_mesh350220918
v -0.218378 0.103377 -0.042610
v 0.461622 -0.004390 -0.043199
v -0.218377 -0.004168 -0.145478
v 0.461622 -0.004390 0.162539
v -0.218378 0.103377 0.163127
v -0.218377 -0.004168 0.265995
v -0.218377 -0.027547 -0.145478
v -0.218378 -0.027547 0.265996
v -0.218378 0.103377 0.060259
v 0.461622 -0.004390 0.059670
v 0.461622 -0.027769 0.162539
v 0.461622 -0.027769 0.059670
v 0.461622 -0.027769 -0.043199
vt 0.262038 0.211063
vt 0.278174 0.277994
vt 0.276809 0.209243
vt -0.513759 0.022808
vt -0.471211 -0.031320
vt -0.483872 -0.039142
vt 0.172912 -0.434527
vt 0.139429 -0.458443
vt 0.138070 -0.456540
vt 0.171553 -0.432624
vt 0.156932 -0.429852
vt -0.220758 0.199836
vt -0.230333 0.196076
vt -0.245870 0.263942
vt -0.211183 0.203596
vt 0.000000 0.000000
vt 0.000000 0.000000
vt 0.000000 0.000000
vt -0.485049 -0.038747
vt -0.514818 0.023260
vt -0.512710 0.024271
vt -0.482941 -0.037735
vt -0.147862 -0.452448
vt -0.156233 -0.446468
vt -0.154874 -0.444566
vt -0.146503 -0.450545
vt 0.534043 0.035874
vt 0.501616 -0.024766
vt 0.499554 -0.023664
vt 0.531981 0.036976
vt 0.205221 0.211587
vt 0.211464 0.137149
vt 0.172714 0.150990
vt 0.214907 0.208127
vt 0.224595 0.204666
vt 0.148562 -0.435831
vt 0.140191 -0.441810
vt -0.255445 0.260181
vt -0.236296 0.267701
vt -0.164603 -0.440489
vt -0.163244 -0.438587
vn 0.1083 0.6872 -0.7184
vn 0.1095 0.6871 0.7183
vn -1.0000 0.0000 -0.0000
vn 0.1565 0.9877 0.0000
vn 0.0000 0.9239 -0.3827
vn -0.2706 0.9239 0.2706
vn 0.0000 0.9239 0.3827
vn 0.1504 0.0000 0.9886
vn 1.0000 0.0000 0.0000
vn 0.1487 0.0000 -0.9889
vn -0.0003 -1.0000 -0.0000
usemtl mat13.003
s 1
f 1/1/1 2/2/1 3/3/1
f 4/4/2 5/5/2 6/6/2
f 7/7/3 8/8/3 6/9/3 3/10/3
f 1/11/3 3/10/3 6/9/3
f 9/12/4 5/13/4 10/14/4
f 1/15/4 9/12/4 10/14/4
f 4/16/5 10/17/6 2/18/7
f 8/19/8 11/20/8 4/21/8 6/22/8
f 11/23/9 12/24/9 10/25/9 4/26/9
f 13/27/10 7/28/10 3/29/10 2/30/10
f 13/31/11 8/32/11 7/33/11
f 13/31/11 12/34/11 11/35/11 8/32/11
f 9/36/3 1/11/3 6/9/3
f 5/37/3 9/36/3 6/9/3
f 5/13/4 4/38/4 10/14/4
f 10/14/4 2/39/4 1/15/4
f 12/24/9 13/40/9 2/41/9 10/25/9
